PathFileType  4	(X/Y/Z) C:\Users\antoi\Documents\MyRepositories\mobilecap\ResultsAnalysis
DataRate	CameraRate	NumFrames	NumMarkers	Units	OrigDataRate	OrigDataStartFrame	OrigNumFrames
100.0	100.0	4	51	mm	100.0	1	223
Frame#	Time	r_knee			r_shank_antsup			r_ankle			r_calc			r_5meta			r_toe			L_knee			L_shank_antsup			L_ankle			L_calc			L_5meta			L_toe			r_sh2			r_sh3			r_sh4			L_sh2			L_sh3			r_thigh1			r_thigh2			r_thigh3			r_thigh4			r_thigh5			L_thigh1			L_thigh2			L_thigh3			L_thigh4			r.ASIS			r.PSIS			L.ASIS			L.PSIS			C7			R_Shoulder			L_Shoulder			R_Sternum			L_Sternum			R_humerus			R_elbow_med			R_elbow_lat			R_forearm			R_wrist_radius			R_wrist_ulna			L_humerus			L_elbow_med			L_elbow_lat			L_forearm			L_wrist_radius			L_wrist_ulna			R_HJC			L_HJC			R_HJC_reg			L_HJC_reg			
		X1	Y1	Z1	X2	Y2	Z2	X3	Y3	Z3	X4	Y4	Z4	X5	Y5	Z5	X6	Y6	Z6	X7	Y7	Z7	X8	Y8	Z8	X9	Y9	Z9	X10	Y10	Z10	X11	Y11	Z11	X12	Y12	Z12	X13	Y13	Z13	X14	Y14	Z14	X15	Y15	Z15	X16	Y16	Z16	X17	Y17	Z17	X18	Y18	Z18	X19	Y19	Z19	X20	Y20	Z20	X21	Y21	Z21	X22	Y22	Z22	X23	Y23	Z23	X24	Y24	Z24	X25	Y25	Z25	X26	Y26	Z26	X27	Y27	Z27	X28	Y28	Z28	X29	Y29	Z29	X30	Y30	Z30	X31	Y31	Z31	X32	Y32	Z32	X33	Y33	Z33	X34	Y34	Z34	X35	Y35	Z35	X36	Y36	Z36	X37	Y37	Z37	X38	Y38	Z38	X39	Y39	Z39	X40	Y40	Z40	X41	Y41	Z41	X42	Y42	Z42	X43	Y43	Z43	X44	Y44	Z44	X45	Y45	Z45	X46	Y46	Z46	X47	Y47	Z47	X48	Y48	Z48	X49	Y49	Z49	X50	Y50	Z50	X51	Y51	Z51	

1	0.00000000	-1118.74733	799.72969	-466.91980	-1087.08854	724.98018	-483.66293	-1207.47583	405.91649	-472.77373	-1279.82790	371.00229	-505.72815	-1104.35632	355.27801	-443.43018	-1060.16981	383.41205	-500.40166	-1160.22608	802.03155	-742.54264	-1134.66758	706.48924	-745.57624	-1225.23920	405.33658	-715.64496	-1288.36127	371.01957	-672.15883	-1120.72460	353.49706	-763.42198	-1077.54615	377.30343	-710.52234	-1126.27813	619.56557	-456.90783	-1157.39855	750.83606	-449.62512	-1194.56779	645.61924	-441.88399	-1221.44242	724.97104	-751.61128	-1234.15654	603.09240	-756.94363	-1082.04582	1120.77545	-438.64447	-1075.34992	1005.62047	-447.49361	-1129.83791	979.84362	-415.52397	-1192.87745	1111.93328	-418.17206	-1182.80018	994.64549	-426.84918	-1127.02616	1070.46219	-801.78111	-1118.15084	935.48568	-771.96378	-1238.18865	1065.95503	-765.95999	-1222.99118	927.41147	-748.14492	-1068.94816	1268.84298	-482.30569	-1248.88806	1341.01252	-564.61893	-1062.38596	1250.20374	-730.67408	-1252.08153	1343.37829	-667.23639	-1161.73358	1744.69776	-629.88181	-1061.32473	1690.37241	-453.85816	-1080.27900	1701.61792	-804.22540	-1026.75533	1688.63656	-607.17198	-1025.86824	1688.90841	-638.74229	-1069.24849	1552.34387	-389.06937	-1171.53580	1356.94190	-419.35504	-1141.91704	1367.06905	-353.78490	-1070.20351	1243.85064	-359.96843	-1036.32798	1111.53761	-371.72512	-1054.51538	1105.93674	-340.93405	-1074.07242	1577.57705	-859.78986	-1166.15374	1357.81831	-800.16124	-1126.21610	1367.18485	-867.92659	-1067.23796	1269.70103	-845.26577	-1038.21328	1116.05299	-833.52551	-1057.80706	1110.99718	-859.24193	-1160.91232	1205.17035	-504.05594	-1157.10283	1196.22877	-710.29793	-1148.82543	1199.36767	-515.70114	-1153.93903	1203.15589	-680.01909	
2	0.01000000	-1118.19229	799.47701	-466.85321	-1086.62812	724.84151	-483.56485	-1207.69032	405.66672	-472.97581	-1280.18592	370.83152	-505.76632	-1104.43160	355.31615	-443.70728	-1060.22969	383.70851	-500.32018	-1159.21548	801.90302	-742.13306	-1133.73395	706.28541	-745.27866	-1225.26155	405.34095	-715.44932	-1288.36498	371.03261	-672.13217	-1120.75235	353.58576	-763.35769	-1077.56383	377.46031	-710.44374	-1126.01253	619.41382	-456.71562	-1156.78896	750.66950	-449.37389	-1194.44744	645.71915	-441.84537	-1220.56729	725.00140	-751.50035	-1233.79967	603.05161	-756.47712	-1081.26908	1120.33305	-438.08865	-1074.74261	1005.39275	-446.88463	-1129.01647	979.52198	-415.30651	-1191.79371	1111.66726	-417.89449	-1182.00036	994.52806	-426.53888	-1126.08775	1070.41243	-801.51733	-1117.23016	935.37316	-771.45434	-1237.41927	1065.79799	-765.44489	-1222.18654	927.27314	-747.78824	-1067.93382	1268.23539	-482.12172	-1247.41702	1341.42994	-564.06169	-1061.27426	1249.94567	-730.36189	-1250.50330	1343.82442	-666.50205	-1157.84275	1744.51970	-628.92914	-1057.61629	1689.67610	-453.17247	-1076.28908	1701.36974	-803.21560	-1022.94968	1688.06517	-606.29269	-1022.11041	1688.36792	-637.65744	-1066.44365	1551.76048	-388.34436	-1172.93643	1357.47952	-416.70738	-1140.10256	1366.88438	-353.21138	-1068.86745	1243.47214	-359.42478	-1035.03160	1111.34340	-371.55949	-1053.41498	1105.57522	-340.77464	-1070.65356	1577.29347	-858.96726	-1164.24934	1358.01727	-799.84049	-1124.10828	1367.27648	-867.39033	-1065.38809	1269.75855	-844.58943	-1036.69972	1116.06448	-832.90844	-1056.22493	1111.30681	-858.69936	-1160.04226	1204.99516	-503.77748	-1156.32691	1196.40077	-710.03583	-1148.14268	1199.42591	-515.58365	-1153.09062	1203.26416	-679.80573	
3	0.02000000	-1117.59590	799.30708	-466.71830	-1086.15683	724.68661	-483.49434	-1207.76587	405.55939	-473.06581	-1280.31912	370.72406	-505.71287	-1104.49603	355.41614	-443.81897	-1060.29689	383.93477	-500.32206	-1158.22956	801.64550	-741.48043	-1132.90031	706.11032	-745.09291	-1225.29196	405.38658	-715.34540	-1288.38403	371.04523	-672.09322	-1120.78320	353.68704	-763.27430	-1077.60651	377.60819	-710.36387	-1125.68002	619.29755	-456.58163	-1156.18507	750.39970	-449.17239	-1194.20784	645.76254	-441.73957	-1219.70107	725.02705	-751.18125	-1233.22376	603.18282	-756.19178	-1080.21714	1120.08193	-437.71860	-1074.07629	1005.22107	-446.33910	-1128.13521	979.24422	-415.16450	-1190.75767	1111.56973	-417.52623	-1181.09727	994.41087	-426.09252	-1125.12291	1070.43239	-801.27270	-1116.28961	935.26538	-771.05781	-1236.59962	1065.60043	-764.82340	-1221.28152	927.12041	-747.36584	-1066.75719	1267.69726	-481.65996	-1245.85056	1341.86563	-563.48496	-1059.94765	1249.63408	-730.03709	-1248.89472	1344.23953	-665.70875	-1153.70987	1744.35107	-628.00483	-1053.78324	1688.98608	-452.29128	-1072.12397	1701.13517	-802.35653	-1019.03149	1687.40970	-605.49608	-1018.68147	1687.27757	-637.02479	-1063.54396	1551.04932	-387.54963	-1172.25133	1357.64495	-415.60592	-1138.38294	1366.70391	-352.55981	-1067.52173	1243.03971	-358.97433	-1033.28367	1111.36666	-371.32818	-1052.87280	1104.66315	-341.11359	-1067.10331	1577.00990	-858.28136	-1162.20143	1358.24252	-799.44893	-1121.90221	1367.35041	-867.07908	-1063.47600	1269.72769	-843.98389	-1035.11877	1116.00621	-832.10831	-1054.70346	1111.18033	-857.64349	-1159.03790	1204.87360	-503.36078	-1155.37361	1196.52611	-709.63045	-1147.25915	1199.45867	-515.14920	-1152.15252	1203.27387	-679.45511	
4	0.03000000	-1116.92091	799.22513	-466.51316	-1085.64211	724.50389	-483.41644	-1207.72131	405.59911	-473.03751	-1280.29524	370.71357	-505.63665	-1104.53949	355.56149	-443.83288	-1060.38526	384.11445	-500.36708	-1157.24954	801.41387	-740.96331	-1132.12234	705.91516	-744.89213	-1225.33202	405.49885	-715.39900	-1288.41838	371.06569	-672.06369	-1120.81616	353.78626	-763.20429	-1077.67836	377.74873	-710.30238	-1125.22505	619.30775	-456.47104	-1155.73425	750.37935	-448.95215	-1193.70216	645.78200	-441.55917	-1218.88351	725.06761	-750.66060	-1232.48833	603.45173	-756.03732	-1079.03261	1119.88139	-437.58490	-1073.22717	1005.12679	-446.01861	-1127.20459	979.00317	-414.99872	-1189.70571	1111.51430	-417.02720	-1180.13389	994.20317	-425.68895	-1124.18903	1070.34923	-800.88338	-1115.33147	935.16215	-770.79071	-1235.76817	1065.35037	-764.15096	-1220.33034	926.93995	-746.92085	-1065.44955	1267.16682	-480.94743	-1244.22843	1342.32497	-562.84034	-1058.66868	1249.21423	-729.63707	-1247.33863	1344.66376	-664.99861	-1149.31066	1744.14498	-627.09754	-1049.73668	1688.18911	-451.35774	-1067.71979	1700.85514	-801.59856	-1014.93960	1686.62922	-604.74095	-1014.93856	1686.17654	-636.24722	-1060.48307	1550.28282	-386.64906	-1170.07954	1357.48163	-415.56748	-1136.72182	1366.51543	-351.73983	-1066.13400	1242.58596	-358.62271	-1031.67533	1111.17523	-371.16940	-1051.59061	1104.45992	-340.86462	-1063.42434	1576.69953	-857.57223	-1160.09747	1358.56518	-798.82744	-1119.58582	1367.42655	-866.87682	-1061.49798	1269.61195	-843.39555	-1033.43343	1115.98857	-831.24187	-1053.11826	1110.91102	-856.32359	-1158.02813	1204.81083	-502.80121	-1154.43671	1196.57035	-709.07648	-1146.28314	1199.42772	-514.39683	-1151.29152	1203.19379	-678.90020	
